<?xml version="1.0" standalone="no"?>
<!DOCTYPE svg PUBLIC "-//W3C//DTD SVG 20010904//EN"
 "http://www.w3.org/TR/2001/REC-SVG-20010904/DTD/svg10.dtd">
<svg version="1.0" xmlns="http://www.w3.org/2000/svg"
 width="1024.000000pt" height="1024.000000pt" viewBox="0 0 1024.000000 1024.000000"
 preserveAspectRatio="xMidYMid meet">
<metadata>
Created by potrace 1.14, written by Peter Selinger 2001-2017
</metadata>
<g transform="translate(0.000000,1024.000000) scale(0.100000,-0.100000)"
fill="#000000" stroke="none">
<path d="M1573 9504 c3 -4 -1 -13 -9 -21 -8 -9 -13 -22 -10 -29 3 -7 -4 -16
-16 -20 -16 -5 -18 -8 -7 -15 9 -6 10 -9 2 -9 -6 0 -15 -9 -18 -20 -4 -12 -11
-17 -18 -13 -7 4 -6 -1 2 -10 12 -15 12 -17 -4 -11 -12 5 -16 4 -12 -3 4 -6
-2 -22 -13 -35 -11 -14 -16 -28 -13 -32 3 -3 1 -6 -5 -6 -7 0 -12 -7 -12 -15
0 -8 -4 -15 -9 -15 -5 0 -12 -11 -15 -25 -4 -14 -11 -25 -16 -25 -6 0 -10 -9
-10 -20 0 -11 -5 -20 -11 -20 -6 0 -8 -7 -5 -16 3 -8 2 -12 -4 -9 -6 3 -10 -1
-10 -9 0 -9 -5 -16 -11 -16 -5 0 -7 -4 -4 -10 3 -5 1 -10 -4 -10 -6 0 -11 -7
-11 -15 0 -8 -5 -15 -10 -15 -6 0 -9 -3 -9 -7 3 -20 -2 -34 -11 -28 -5 3 -10
-3 -10 -14 0 -11 -10 -30 -22 -42 -13 -12 -16 -18 -8 -13 8 4 0 -10 -17 -33
-18 -22 -33 -48 -33 -57 0 -9 -4 -16 -10 -16 -5 0 -10 -7 -10 -15 0 -8 -5 -15
-11 -15 -5 0 -7 -4 -4 -10 3 -5 1 -10 -5 -10 -6 0 -8 -4 -5 -10 3 -5 1 -10 -5
-10 -6 0 -8 -4 -5 -10 3 -5 2 -10 -4 -10 -6 0 -13 -11 -17 -25 -3 -14 -9 -25
-13 -25 -3 0 -12 -13 -19 -28 -6 -16 -21 -38 -32 -50 -12 -12 -16 -22 -10 -22
6 0 2 -10 -10 -22 -11 -12 -20 -28 -20 -35 0 -8 -7 -16 -15 -19 -8 -4 -12 -10
-9 -15 3 -5 0 -9 -5 -9 -6 0 -10 -3 -9 -7 2 -5 -8 -26 -21 -48 -14 -22 -24
-43 -23 -47 1 -5 -3 -8 -8 -8 -6 0 -10 -7 -10 -15 0 -8 -5 -15 -11 -15 -5 0
-7 -4 -4 -10 3 -5 1 -10 -5 -10 -7 0 -9 -7 -6 -16 3 -8 2 -12 -4 -9 -6 3 -10
-1 -10 -9 0 -9 -5 -16 -11 -16 -5 0 -7 -5 -4 -10 3 -6 -1 -13 -10 -16 -9 -4
-14 -12 -11 -19 3 -8 -2 -16 -10 -19 -8 -3 -14 -11 -14 -19 0 -7 -6 -19 -12
-25 -7 -7 -13 -18 -13 -25 -1 -7 -7 -11 -15 -9 -10 2 -11 0 -2 -10 8 -10 5
-19 -14 -37 -14 -13 -22 -26 -20 -29 3 -2 -2 -11 -10 -19 -8 -8 -11 -19 -8
-25 4 -7 2 -8 -4 -4 -11 6 -16 -6 -13 -26 0 -5 -3 -8 -8 -8 -13 0 -42 -60 -35
-71 3 -5 0 -8 -7 -7 -7 2 -14 -1 -14 -7 -4 -25 -18 -44 -29 -38 -6 3 -8 3 -4
-2 4 -4 2 -17 -4 -29 -7 -11 -11 -24 -10 -28 1 -5 -3 -8 -9 -8 -5 0 -8 -4 -5
-9 3 -5 -1 -11 -9 -15 -8 -3 -15 -12 -15 -21 0 -8 -5 -15 -11 -15 -6 0 -9 -7
-5 -15 3 -8 1 -15 -5 -15 -5 0 -14 -10 -20 -22 -22 -50 -41 -78 -50 -78 -6 0
-7 -5 -4 -11 4 -6 -1 -17 -11 -25 -11 -9 -13 -12 -6 -9 11 6 11 3 0 -14 -7
-12 -16 -21 -20 -21 -5 0 -8 -7 -8 -15 0 -8 -5 -15 -10 -15 -6 0 -9 -3 -8 -7
3 -13 -25 -63 -34 -63 -5 0 -6 -4 -3 -10 3 -5 1 -10 -5 -10 -6 0 -8 -5 -5 -10
3 -6 -1 -13 -9 -16 -9 -3 -13 -10 -10 -15 3 -5 -1 -12 -10 -15 -8 -3 -12 -12
-9 -20 3 -8 0 -14 -6 -14 -6 0 -11 -7 -11 -15 0 -8 -4 -15 -10 -15 -5 0 -10
-9 -10 -20 0 -11 -4 -20 -9 -20 -5 0 -13 -10 -17 -22 -3 -12 -15 -30 -25 -41
-10 -11 -16 -24 -13 -29 3 -4 -2 -11 -10 -14 -9 -3 -16 -10 -16 -16 0 -5 6 -6
13 -3 6 4 4 0 -5 -8 -10 -8 -18 -19 -18 -26 0 -6 -7 -14 -15 -17 -8 -4 -13
-10 -10 -14 3 -5 1 -11 -5 -15 -6 -4 -8 -10 -5 -15 3 -4 -2 -11 -11 -14 -8 -3
-13 -10 -9 -15 3 -6 -3 -14 -12 -20 -14 -8 -15 -10 -3 -11 9 0 11 -3 5 -8 -5
-4 -17 -16 -25 -26 -13 -18 -13 -19 0 -12 9 4 8 2 -2 -7 -10 -8 -15 -17 -11
-20 3 -4 -2 -16 -12 -27 -10 -11 -15 -23 -12 -27 4 -3 7 0 7 7 0 7 3 10 7 7 3
-4 -2 -17 -13 -29 -12 -13 -13 -18 -4 -13 13 8 13 6 2 -8 -8 -9 -11 -21 -7
-27 3 -5 1 -10 -5 -10 -6 0 -8 -4 -5 -10 3 -5 0 -10 -7 -10 -9 0 -9 -3 2 -10
9 -6 10 -10 3 -10 -6 0 -10 -9 -8 -20 2 -11 1 -20 -3 -20 -4 0 -7 -26 -7 -58
1 -31 -3 -63 -8 -69 -6 -9 -5 -13 2 -13 7 0 9 -5 6 -10 -4 -6 -12 -7 -18 -3
-8 4 -7 1 1 -9 10 -13 10 -18 1 -24 -9 -5 -7 -11 6 -21 14 -9 15 -13 4 -13
-11 0 -12 -2 0 -9 9 -6 10 -10 2 -16 -9 -5 -9 -10 0 -21 6 -7 9 -21 5 -29 -3
-8 -1 -15 4 -15 6 0 10 -5 10 -11 0 -6 -6 -7 -12 -2 -7 4 -5 -6 6 -21 11 -17
13 -25 5 -20 -11 6 -12 5 -3 -7 6 -8 12 -22 13 -31 3 -41 5 -48 13 -48 5 0 7
-4 4 -8 -3 -5 1 -20 9 -35 10 -20 11 -27 2 -27 -7 0 -4 -5 6 -11 9 -6 15 -14
12 -19 -3 -5 -1 -11 5 -15 6 -4 8 -11 5 -16 -4 -5 2 -9 12 -9 15 0 16 -2 3
-10 -8 -5 -10 -10 -5 -10 6 0 16 -9 23 -21 9 -14 10 -19 2 -14 -9 6 -9 2 -1
-13 6 -11 16 -22 21 -24 6 -2 12 -13 13 -25 0 -12 5 -19 9 -17 4 3 8 -2 8 -10
0 -9 9 -21 20 -28 11 -7 20 -16 20 -21 0 -4 9 -17 20 -29 10 -12 17 -25 15
-29 -3 -4 4 -10 15 -14 11 -3 20 -13 20 -21 0 -8 4 -12 10 -9 5 3 15 -5 21
-19 7 -14 16 -23 21 -20 4 3 11 -2 14 -11 4 -9 18 -21 31 -26 13 -5 21 -13 18
-19 -3 -5 -1 -10 4 -10 21 0 26 -3 39 -21 7 -11 18 -19 24 -19 7 0 21 -9 32
-19 12 -11 30 -21 41 -23 11 -1 25 -10 32 -18 7 -8 13 -12 13 -8 0 4 21 -4 46
-18 26 -14 43 -20 38 -12 -4 7 3 4 15 -7 13 -11 25 -19 27 -17 2 1 5 2 7 1 19
-6 38 -10 65 -15 18 -4 35 -10 38 -15 3 -5 13 -5 24 1 14 7 23 6 34 -6 11 -11
16 -12 16 -3 0 10 3 10 12 1 16 -16 31 -15 22 1 -4 6 3 3 16 -8 13 -11 20 -14
15 -6 -6 11 -4 13 7 8 9 -3 21 0 27 6 9 9 11 8 5 -7 -6 -16 -4 -17 13 -8 11 6
23 9 25 6 3 -2 13 7 22 21 9 14 13 25 9 25 -4 0 2 7 13 16 10 8 12 13 4 9 -9
-4 -8 -1 3 8 10 8 19 24 20 35 0 12 6 18 14 15 9 -3 13 4 13 21 0 16 6 26 15
26 8 0 12 6 9 14 -3 8 0 17 5 21 6 3 9 11 5 16 -3 5 0 8 7 7 7 -2 14 3 15 10
1 6 3 15 4 20 1 4 2 11 1 15 -1 5 3 6 8 3 5 -4 12 3 16 14 3 11 11 20 16 20 6
0 8 4 4 9 -3 5 2 17 11 25 8 9 12 16 7 16 -4 0 -2 4 5 9 7 4 14 17 15 29 0 11
4 19 8 17 5 -4 21 22 29 50 2 6 10 16 17 23 7 7 13 20 13 28 0 9 5 12 12 8 8
-5 9 -2 5 9 -4 11 -1 17 8 17 8 0 14 3 14 8 -3 20 2 32 13 26 7 -5 8 -3 4 5
-5 7 0 19 10 27 11 9 13 13 7 9 -7 -3 -13 -2 -13 3 0 6 7 13 16 16 8 3 13 10
10 15 -3 5 1 12 10 15 8 3 12 10 9 16 -3 5 -1 10 4 10 6 0 11 7 11 15 0 8 5
15 11 15 5 0 7 5 4 10 -3 6 1 13 9 16 9 3 14 10 11 14 -3 5 1 15 9 23 8 8 12
17 9 21 -4 3 -1 6 5 6 7 0 12 10 12 22 0 12 3 18 6 15 8 -8 44 55 37 66 -2 4
1 7 7 7 6 0 16 12 22 28 7 15 21 38 32 51 13 15 15 21 6 17 -8 -4 -6 0 4 8 11
9 16 16 10 16 -5 0 -5 3 1 8 10 7 15 16 57 91 11 20 24 40 29 45 5 6 9 18 9
29 0 10 5 15 10 12 9 -6 14 8 11 28 0 4 3 7 8 7 5 0 14 14 21 30 7 17 17 30
22 30 5 0 6 5 3 10 -3 6 -1 10 5 10 6 0 9 4 6 8 -3 5 3 18 13 28 9 11 15 26
13 33 -3 8 0 11 6 7 7 -4 14 4 18 19 3 14 10 25 16 25 5 0 7 4 4 8 -3 5 5 20
17 33 12 13 21 24 19 24 -2 0 0 8 3 17 4 10 11 16 16 13 4 -3 6 4 4 15 -2 11
1 20 6 20 6 0 15 14 20 30 6 17 15 30 21 30 5 0 7 4 4 9 -3 5 1 11 9 15 8 3
12 12 9 19 -3 8 2 17 11 21 9 3 13 10 10 16 -3 5 -1 10 4 10 6 0 11 7 11 15 0
8 5 15 11 15 5 0 8 4 5 9 -4 5 -1 11 4 13 6 2 12 13 12 25 2 14 7 19 17 15 9
-3 12 -1 8 5 -4 6 0 18 9 27 8 9 12 20 9 26 -3 5 2 10 12 10 15 0 16 2 3 10
-13 8 -12 10 3 10 10 0 16 4 12 9 -3 5 1 15 8 23 7 7 18 25 24 41 7 15 17 27
23 27 6 0 9 4 5 9 -3 5 -1 12 5 16 6 4 8 10 5 15 -3 4 2 11 11 14 9 4 14 9 11
12 -3 4 1 13 9 21 8 8 12 19 9 24 -4 5 -3 9 2 9 4 0 17 12 27 27 12 16 14 23
5 18 -8 -5 -4 3 9 17 12 13 19 28 15 31 -3 4 -1 7 5 7 7 0 12 5 12 12 0 6 10
23 23 36 12 14 15 22 7 18 -8 -4 -6 0 4 8 11 9 16 16 11 16 -4 0 0 9 10 20 10
11 14 20 9 20 -5 0 -1 5 9 11 9 6 15 14 12 19 -3 4 2 11 11 14 8 3 13 10 10
15 -3 5 4 7 16 3 16 -4 19 -2 13 8 -6 10 -4 11 6 4 23 -14 101 -15 93 -1 -5 9
-3 9 7 0 7 -7 17 -13 22 -13 4 0 5 6 1 13 -4 6 2 4 13 -6 14 -12 23 -15 28 -7
3 5 12 7 18 3 22 -14 36 -11 29 5 -4 14 -3 15 9 6 18 -15 121 -16 112 -1 -4 6
-1 7 8 1 21 -13 42 -14 55 -3 8 7 15 6 20 -2 5 -8 3 -9 -6 -4 -9 5 -11 4 -6
-3 5 -8 13 -9 24 -3 9 4 23 6 31 3 10 -3 11 0 5 9 -6 11 -5 12 7 3 16 -12 68
-13 86 -1 6 4 15 2 19 -4 5 -8 3 -9 -6 -4 -9 5 -11 4 -6 -3 5 -8 13 -9 24 -3
9 4 23 6 31 3 10 -3 11 0 5 9 -6 11 -5 12 7 2 8 -6 29 -10 46 -9 18 1 35 -3
37 -8 3 -7 5 -6 5 1 1 7 8 10 18 6 12 -5 14 -3 8 8 -7 11 -6 12 6 3 21 -16 72
-17 63 -1 -5 9 -4 9 7 0 7 -7 17 -13 22 -13 4 0 5 6 1 13 -4 6 2 4 13 -6 14
-12 23 -15 28 -7 3 5 12 7 18 3 22 -14 36 -11 29 5 -4 14 -3 15 9 6 19 -15
121 -16 112 0 -3 6 -1 6 8 -1 7 -7 17 -13 22 -13 4 0 5 6 1 13 -4 6 2 4 13 -6
14 -12 23 -15 28 -7 3 5 12 7 18 3 22 -14 36 -11 29 5 -4 14 -3 15 9 6 18 -15
121 -16 112 -1 -4 6 -1 7 8 1 21 -13 42 -14 55 -3 8 7 15 6 20 -2 5 -8 3 -9
-6 -4 -9 5 -11 4 -6 -3 5 -8 13 -9 24 -3 9 4 23 6 31 3 10 -3 11 0 5 9 -6 11
-5 12 7 3 16 -12 68 -13 86 -1 6 4 15 2 19 -4 5 -8 3 -9 -6 -4 -9 5 -11 4 -6
-3 5 -8 13 -9 24 -3 9 4 23 6 31 3 10 -3 11 0 5 9 -6 11 -5 12 7 2 8 -6 29
-10 46 -9 18 1 35 -3 37 -8 3 -7 5 -6 5 1 1 7 8 10 18 6 12 -5 14 -3 8 8 -7
11 -6 12 6 3 21 -16 72 -17 63 -1 -5 9 -4 9 7 0 7 -7 17 -13 22 -13 4 0 5 6 1
13 -4 6 2 4 13 -6 14 -12 23 -15 28 -7 3 5 12 7 18 3 22 -14 36 -11 29 5 -4
14 -3 15 9 6 19 -15 121 -16 112 0 -3 6 -1 6 8 -1 7 -7 17 -13 22 -13 4 0 5 6
1 13 -4 6 2 4 13 -6 14 -12 23 -15 28 -7 3 5 12 7 18 3 22 -14 36 -11 29 5 -4
14 -3 15 9 6 18 -15 121 -16 112 -1 -4 6 -1 7 8 1 21 -13 42 -14 55 -3 8 7 15
6 20 -2 5 -8 3 -9 -6 -4 -9 5 -11 4 -6 -3 5 -8 13 -9 24 -3 9 4 23 6 31 3 10
-3 11 0 5 9 -6 11 -5 12 7 3 16 -12 68 -13 86 -1 6 4 15 2 19 -4 5 -8 3 -9 -6
-4 -9 5 -11 4 -6 -3 5 -8 13 -9 24 -3 9 4 23 6 31 3 10 -3 11 0 5 9 -6 12 -5
12 9 0 10 -8 20 -11 24 -8 3 4 13 1 21 -6 13 -10 14 -9 7 2 -6 11 -4 13 10 8
9 -4 25 -2 33 5 13 11 14 11 7 -1 -6 -11 -3 -13 12 -9 11 3 28 1 38 -5 13 -7
16 -6 10 3 -5 9 -2 10 14 5 14 -4 21 -2 21 7 0 8 3 9 8 3 11 -16 65 -18 56 -2
-5 9 -4 9 7 0 7 -7 17 -13 22 -13 4 0 5 6 1 13 -4 6 2 4 13 -6 14 -13 23 -15
28 -7 5 8 11 7 23 -2 9 -8 13 -8 9 -2 -4 7 0 14 8 18 8 3 17 0 21 -6 5 -7 2
-8 -6 -3 -9 5 -11 4 -6 -4 6 -8 12 -9 20 -2 7 6 16 8 20 4 3 -4 15 -7 26 -8
16 -1 18 1 7 13 -10 13 -9 14 9 4 16 -8 24 -8 34 1 10 10 12 8 7 -5 -4 -10 -2
-18 3 -18 6 0 10 4 10 9 0 4 16 6 36 4 27 -3 34 0 28 9 -5 10 -4 11 7 1 7 -7
17 -13 22 -13 4 0 5 6 1 13 -4 6 1 4 12 -5 15 -13 23 -15 31 -7 8 8 13 8 17 0
4 -6 13 -11 19 -11 7 0 6 4 -3 11 -12 8 -10 10 9 5 14 -3 32 0 40 7 12 10 13
9 6 -2 -6 -11 -3 -13 12 -9 11 3 28 1 38 -5 13 -7 16 -6 10 3 -5 9 -2 10 14 5
14 -4 21 -2 21 7 0 8 3 9 8 3 11 -16 65 -18 56 -2 -5 9 -4 9 7 0 7 -7 17 -13
22 -13 4 0 5 6 1 13 -4 6 2 4 13 -6 14 -13 23 -15 28 -7 5 8 11 7 23 -2 9 -8
13 -8 9 -2 -4 7 0 14 8 18 8 3 17 0 21 -6 5 -7 2 -8 -6 -3 -9 5 -11 4 -6 -4 6
-8 12 -9 20 -2 7 6 16 8 20 4 3 -4 15 -7 26 -8 16 -1 18 1 7 13 -10 13 -9 14
9 4 16 -8 24 -8 34 1 10 10 12 8 7 -5 -4 -10 -2 -18 3 -18 6 0 10 4 10 9 0 4
16 6 36 4 27 -3 34 0 28 9 -5 10 -4 11 7 1 7 -7 17 -13 22 -13 4 0 5 6 1 13
-4 6 1 4 12 -5 15 -13 23 -15 31 -7 8 8 13 8 17 0 4 -6 13 -11 19 -11 7 0 6 4
-3 11 -12 8 -10 10 9 5 14 -3 32 0 40 7 12 10 13 9 6 -2 -6 -11 -3 -13 12 -9
11 3 28 1 38 -5 13 -7 16 -6 10 3 -5 9 -2 10 14 5 14 -4 21 -2 21 7 0 8 3 9 8
3 11 -16 65 -18 56 -2 -5 9 -4 9 7 0 7 -7 17 -13 22 -13 4 0 5 6 1 13 -4 6 2
4 13 -6 14 -13 23 -15 28 -7 5 8 11 7 23 -2 9 -8 13 -8 9 -2 -4 7 0 14 8 18 8
3 17 0 21 -6 5 -7 2 -8 -6 -3 -9 5 -11 4 -6 -4 6 -8 12 -9 20 -2 7 6 16 8 20
4 3 -4 15 -7 26 -8 16 -1 18 1 7 13 -10 13 -9 14 9 4 16 -8 24 -8 34 1 10 10
12 8 7 -5 -4 -10 -2 -18 3 -18 6 0 10 4 10 9 0 4 16 6 36 4 27 -3 34 0 28 9
-5 10 -4 11 7 1 7 -7 17 -13 22 -13 4 0 5 6 1 13 -4 6 1 4 12 -5 15 -13 23
-15 31 -7 8 8 13 8 17 0 4 -6 13 -11 19 -11 7 0 6 4 -3 11 -12 8 -10 10 9 5
14 -3 32 0 40 7 12 10 13 9 6 -2 -6 -11 -3 -13 12 -9 11 3 28 1 38 -5 13 -7
16 -6 10 3 -5 9 -2 10 14 5 14 -4 21 -2 21 7 0 8 3 9 8 3 11 -16 65 -18 56 -2
-5 9 -4 9 7 0 7 -7 17 -13 22 -13 4 0 5 6 1 13 -4 6 2 4 13 -6 14 -13 23 -15
28 -7 5 8 11 7 23 -2 9 -8 13 -8 9 -2 -4 7 0 14 8 18 8 3 17 0 21 -6 5 -7 2
-8 -6 -3 -9 5 -11 4 -6 -4 6 -8 12 -9 20 -2 7 6 16 8 20 4 3 -4 15 -7 26 -8
16 -1 18 1 7 13 -10 13 -9 14 9 4 16 -8 24 -8 34 1 10 10 12 8 7 -5 -4 -10 -2
-18 3 -18 6 0 10 4 10 9 0 4 16 6 36 4 27 -3 34 0 28 9 -5 10 -4 11 7 1 7 -7
17 -13 22 -13 4 0 5 6 1 13 -4 6 2 4 13 -6 14 -13 23 -15 28 -7 5 8 11 7 23
-2 13 -11 14 -11 7 1 -6 11 -4 13 10 8 9 -4 23 -3 30 3 10 8 15 8 21 -1 5 -8
3 -9 -6 -4 -9 5 -11 4 -6 -3 5 -8 13 -9 24 -3 9 4 23 6 31 3 10 -3 11 0 5 9
-6 11 -5 12 7 3 11 -9 55 -12 92 -5 4 0 -1 11 -13 23 -11 12 -20 28 -20 35 0
7 -4 13 -10 13 -5 0 -10 7 -10 15 0 8 -4 15 -10 15 -5 0 -10 9 -10 19 0 10 -7
22 -16 25 -8 3 -12 10 -9 16 3 5 2 10 -3 10 -5 0 -15 14 -22 30 -7 17 -16 30
-21 30 -5 0 -9 9 -9 20 0 11 -4 20 -8 20 -5 0 -15 12 -23 28 -8 15 -16 29 -20
32 -3 3 -13 22 -22 43 -10 20 -23 37 -29 37 -5 0 -8 6 -5 13 3 8 -3 20 -13 27
-11 8 -17 17 -14 22 3 4 0 8 -6 8 -7 0 -10 7 -6 15 3 9 0 15 -10 15 -8 0 -12
5 -9 10 3 6 1 10 -4 10 -6 0 -11 6 -11 13 0 7 -9 23 -20 35 -11 12 -21 25 -23
29 -1 5 -4 7 -7 6 -3 -1 -7 8 -7 20 -1 12 -7 23 -13 25 -5 2 -10 10 -10 18 0
8 -4 14 -10 14 -5 0 -10 9 -10 19 0 11 -9 26 -19 33 -11 8 -21 22 -23 33 -3
22 -20 45 -28 40 -3 -2 -7 6 -7 18 -1 12 -10 27 -19 34 -9 6 -13 16 -10 21 3
6 -1 13 -10 16 -8 3 -13 10 -10 14 3 5 -4 14 -14 22 -10 8 -17 17 -15 21 3 4
-2 12 -10 19 -8 7 -15 19 -15 26 0 8 -4 14 -10 14 -5 0 -10 9 -10 21 0 11 -4
17 -10 14 -5 -3 -10 3 -10 14 0 12 -4 21 -10 21 -5 0 -10 5 -10 11 0 6 -7 17
-15 26 -8 8 -13 19 -10 24 4 5 1 9 -4 9 -6 0 -11 7 -11 16 0 8 -5 12 -10 9 -6
-3 -10 3 -10 14 0 12 -4 21 -10 21 -5 0 -10 7 -10 15 0 8 -5 15 -11 15 -5 0
-7 5 -4 10 3 6 1 10 -5 10 -6 0 -9 4 -6 9 3 5 -1 11 -9 15 -8 3 -15 11 -15 17
0 7 -8 18 -17 26 -10 8 -12 12 -6 8 9 -4 11 -1 7 9 -3 9 -10 16 -14 16 -4 0
-16 12 -26 28 -17 26 -17 27 2 12 18 -14 18 -13 -1 10 -43 52 -89 124 -74 114
8 -4 9 -3 5 4 -5 9 -675 12 -2698 12 -1480 0 -2689 -3 -2685 -6z"/>
<path d="M3094 7379 c-5 -8 -3 -9 6 -4 8 5 11 4 6 -3 -4 -6 -17 -8 -34 -3 -47
14 -76 -5 -71 -45 0 -3 -6 -11 -15 -17 -8 -7 -16 -19 -18 -27 -3 -14 -12 -29
-35 -54 -7 -8 -9 -16 -6 -20 4 -3 1 -6 -6 -6 -7 0 -9 -5 -6 -10 3 -6 0 -13 -9
-16 -8 -3 -13 -11 -10 -18 3 -7 -8 -25 -23 -41 -15 -16 -21 -25 -13 -20 11 6
10 3 -3 -12 -9 -11 -14 -23 -10 -26 3 -4 1 -7 -5 -7 -7 0 -12 -7 -12 -15 0 -8
-3 -15 -8 -15 -4 0 -13 -9 -20 -21 -11 -17 -11 -20 0 -13 7 4 4 -4 -8 -17 -12
-13 -27 -39 -35 -56 -8 -18 -18 -33 -22 -33 -5 0 -5 -4 -2 -10 3 -5 1 -10 -5
-10 -6 0 -8 -4 -5 -10 3 -5 2 -10 -4 -10 -6 0 -13 -11 -17 -25 -3 -14 -10 -25
-14 -25 -8 0 -24 -37 -22 -50 0 -3 -6 -9 -14 -13 -8 -5 -12 -12 -9 -18 4 -5 2
-9 -4 -9 -5 0 -15 -16 -21 -36 -7 -19 -18 -38 -26 -41 -8 -3 -11 -9 -8 -14 3
-5 1 -9 -5 -9 -6 0 -7 -7 -4 -17 4 -11 3 -14 -5 -9 -7 4 -12 1 -12 -8 0 -8 -7
-22 -16 -30 -8 -9 -13 -20 -10 -25 3 -5 -1 -12 -10 -15 -8 -3 -13 -10 -10 -15
3 -5 -1 -12 -10 -15 -8 -3 -13 -10 -10 -15 4 -5 -1 -16 -9 -24 -8 -9 -15 -23
-15 -32 0 -9 -4 -13 -10 -10 -5 3 -10 -3 -10 -14 0 -12 -5 -21 -11 -21 -5 0
-7 -4 -4 -10 3 -5 2 -10 -4 -10 -6 0 -13 -11 -17 -25 -3 -14 -10 -25 -16 -25
-5 0 -6 -4 -3 -10 3 -5 1 -10 -5 -10 -6 0 -8 -4 -5 -10 3 -5 1 -10 -4 -10 -6
0 -11 -7 -11 -16 0 -9 -5 -12 -12 -8 -7 5 -8 3 -4 -5 5 -7 0 -19 -10 -27 -11
-9 -13 -13 -4 -9 8 4 6 -1 -4 -9 -11 -9 -16 -16 -12 -16 4 0 -1 -13 -10 -29
-10 -17 -22 -27 -27 -24 -6 3 -7 1 -3 -6 4 -6 -2 -24 -13 -40 -12 -16 -21 -34
-21 -40 0 -5 -6 -14 -12 -18 -7 -4 -13 -15 -13 -23 0 -8 -6 -14 -14 -12 -12 3
-12 1 0 -14 8 -10 9 -15 2 -11 -7 5 -14 -2 -19 -15 -4 -13 -11 -26 -16 -29 -5
-3 -11 -15 -12 -25 -2 -10 -9 -18 -16 -16 -8 2 -10 -3 -6 -13 3 -9 -3 -24 -14
-35 -11 -11 -17 -20 -13 -20 3 0 -1 -8 -10 -18 -10 -10 -14 -22 -10 -25 3 -4
1 -7 -6 -7 -7 0 -9 -4 -6 -10 3 -5 1 -10 -4 -10 -6 0 -11 -7 -11 -15 0 -8 -5
-15 -11 -15 -5 0 -8 -4 -5 -9 3 -5 -1 -14 -9 -21 -8 -7 -13 -16 -10 -20 3 -4
-2 -11 -11 -14 -8 -3 -12 -10 -9 -16 3 -5 1 -10 -5 -10 -7 0 -10 -6 -7 -13 3
-7 -4 -19 -14 -26 -11 -6 -17 -16 -14 -21 3 -6 1 -10 -5 -10 -7 0 -10 -7 -6
-15 3 -9 0 -15 -10 -15 -8 0 -12 -5 -9 -10 3 -6 0 -13 -9 -16 -8 -3 -12 -12
-9 -20 3 -8 0 -14 -7 -14 -6 0 -8 -4 -5 -10 3 -5 1 -10 -5 -10 -10 0 -27 -33
-28 -54 0 -5 -7 -13 -16 -18 -9 -5 -16 -15 -16 -23 0 -20 -35 -76 -43 -70 -4
3 -5 2 -2 -2 3 -3 0 -12 -6 -20 -6 -7 -8 -13 -5 -13 4 0 0 -7 -8 -16 -9 -8
-14 -19 -11 -24 3 -4 -2 -11 -11 -14 -8 -3 -12 -10 -9 -16 3 -5 2 -10 -3 -10
-8 0 -14 -13 -22 -48 -1 -4 -8 -11 -16 -15 -8 -5 -12 -12 -9 -18 4 -5 1 -9 -4
-9 -6 0 -11 -7 -11 -15 0 -8 -4 -15 -8 -15 -4 0 -14 -16 -21 -35 -7 -19 -17
-33 -22 -29 -5 3 -8 2 -7 -3 4 -17 -14 -53 -24 -47 -6 4 -6 -2 1 -15 7 -11 9
-21 6 -21 -3 0 17 -22 45 -50 28 -27 48 -50 45 -50 -3 0 3 -8 12 -18 10 -11
22 -17 27 -14 5 3 6 0 2 -7 -4 -6 0 -14 8 -17 9 -3 14 -10 11 -14 -3 -4 2 -11
11 -14 8 -3 12 -10 9 -16 -3 -5 -1 -10 5 -10 14 0 40 -25 40 -39 0 -6 9 -15
20 -21 11 -6 20 -18 20 -26 0 -8 5 -12 10 -9 6 3 10 1 10 -5 0 -14 25 -40 39
-40 6 0 10 -3 10 -7 -4 -22 3 -33 18 -33 9 0 14 -3 10 -6 -3 -3 5 -16 19 -29
13 -12 24 -28 24 -34 0 -7 5 -9 10 -6 6 3 10 -1 10 -10 0 -10 5 -13 12 -9 8 5
9 2 4 -12 -4 -10 -4 -15 0 -12 3 4 24 -14 46 -40 22 -26 47 -53 56 -59 9 -7
13 -13 8 -13 -4 0 6 -12 21 -27 15 -16 31 -27 36 -25 5 1 7 -3 5 -10 -3 -7 12
-28 32 -48 20 -19 39 -43 43 -53 4 -10 11 -16 16 -12 5 3 12 -3 15 -13 4 -10
24 -37 46 -60 22 -23 40 -46 40 -52 0 -6 5 -8 10 -5 6 3 10 1 10 -5 0 -10 12
-25 104 -124 25 -26 43 -53 39 -59 -3 -5 -2 -8 3 -5 10 6 56 -37 47 -45 -2 -3
5 -10 16 -17 12 -6 19 -15 16 -21 -4 -5 1 -9 9 -9 8 0 18 -9 21 -20 4 -11 11
-18 16 -15 5 4 9 -1 9 -9 0 -9 7 -16 15 -16 8 0 14 -3 14 -7 -4 -22 3 -33 18
-33 9 0 14 -3 10 -6 -3 -4 9 -22 28 -40 19 -19 35 -39 35 -45 0 -7 3 -10 6 -6
10 9 32 -16 27 -30 -3 -7 2 -13 11 -13 9 0 16 -5 16 -10 0 -6 14 -24 30 -40
17 -16 30 -32 30 -35 0 -3 15 -22 34 -41 77 -81 86 -91 86 -102 0 -7 7 -12 16
-12 10 0 14 -6 10 -15 -3 -8 0 -14 6 -12 6 1 17 -9 25 -23 7 -14 13 -22 13
-18 0 4 10 -3 23 -15 12 -12 19 -24 15 -27 -4 -3 2 -11 13 -19 17 -10 20 -10
13 1 -4 8 1 6 12 -3 21 -18 48 -14 37 4 -4 7 1 6 11 -2 14 -12 21 -13 38 -2
16 10 18 10 12 0 -5 -8 -2 -11 8 -6 9 3 21 0 27 -6 8 -8 15 -6 27 9 8 10 13
14 10 7 -8 -15 33 -14 53 1 11 8 13 8 8 -1 -5 -8 1 -11 20 -9 16 1 34 -2 42
-8 11 -8 13 -8 7 2 -6 10 -1 11 18 6 18 -4 26 -2 26 7 0 12 2 12 9 0 5 -7 15
-11 22 -9 8 3 26 1 42 -3 15 -4 25 -4 22 1 -3 5 15 7 40 5 27 -3 43 0 40 5 -3
6 1 7 9 4 9 -3 14 -9 11 -14 -2 -4 7 -5 20 -2 15 2 22 9 18 16 -5 8 -3 8 8 0
18 -14 52 -14 61 0 5 7 8 7 8 -3 0 -7 6 -11 15 -8 8 4 17 2 20 -3 4 -6 14 -7
23 -2 9 4 37 7 62 6 25 -1 48 4 52 10 6 8 8 8 8 0 0 -7 15 -12 34 -12 19 0 40
-3 47 -8 8 -4 10 -3 5 4 -10 16 7 15 23 0 11 -11 12 -10 6 1 -6 11 -4 13 10 8
9 -4 25 -2 33 5 11 9 14 9 9 1 -9 -15 32 -14 52 1 12 9 13 8 6 -3 -6 -11 -4
-13 7 -8 9 3 21 0 27 -6 8 -8 15 -6 27 9 8 10 13 14 10 7 -8 -15 33 -14 53 1
11 8 13 8 8 -1 -5 -8 1 -11 20 -9 16 1 34 -2 42 -8 11 -8 13 -8 7 2 -9 15 6
16 22 0 9 -9 12 -8 12 7 0 13 3 16 8 8 4 -6 20 -10 35 -9 15 2 30 0 33 -5 2
-4 11 -6 19 -3 8 4 12 10 9 16 -3 5 3 4 14 -3 17 -11 24 -10 38 2 15 12 17 12
9 0 -6 -11 -4 -13 8 -8 9 3 19 2 22 -3 3 -5 12 -7 20 -4 8 4 12 11 8 18 -4 7
-1 6 9 -2 8 -7 26 -11 39 -8 13 2 30 -1 37 -6 9 -8 12 -5 12 8 0 13 3 15 8 7
4 -6 20 -10 35 -9 15 2 30 0 33 -5 2 -4 11 -6 19 -3 8 4 12 10 9 16 -3 5 3 4
14 -3 17 -11 24 -10 38 2 15 12 17 12 9 0 -6 -11 -4 -13 8 -8 9 3 19 2 22 -3
3 -5 12 -7 20 -4 8 4 12 11 8 17 -4 6 -1 7 8 1 20 -13 93 -13 101 0 6 8 8 8 8
0 0 -7 15 -12 34 -12 19 0 40 -3 47 -8 7 -4 10 -3 5 4 -4 7 8 9 39 7 27 -3 43
0 40 5 -3 6 1 7 9 4 9 -3 14 -9 11 -14 -2 -4 7 -5 20 -2 15 2 22 9 18 16 -5 8
-3 8 8 0 18 -14 52 -14 61 0 5 7 8 7 8 -3 0 -7 6 -11 15 -8 8 4 17 2 20 -3 4
-6 14 -7 23 -2 9 4 37 7 62 6 25 -1 48 4 52 10 6 8 8 8 8 0 0 -7 15 -12 34
-12 19 0 40 -3 47 -8 8 -4 10 -3 5 4 -5 9 3 10 31 6 21 -3 43 -9 48 -12 6 -3
3 2 -5 13 -15 18 -14 18 19 1 20 -11 30 -13 25 -5 -5 9 -2 10 12 5 10 -4 15
-4 11 0 -3 4 3 15 15 25 11 11 18 19 14 19 -4 0 0 7 9 16 9 9 14 23 11 31 -3
8 -2 11 3 8 9 -5 27 32 23 48 -1 5 2 6 7 3 9 -6 27 31 23 47 -1 5 1 6 6 3 5
-3 15 7 22 22 16 33 16 32 25 59 4 13 11 20 16 17 8 -4 10 1 9 21 -1 3 6 13
15 21 8 9 13 20 10 25 -4 5 -1 9 5 9 6 0 16 13 21 30 6 17 16 27 22 23 6 -4 7
-1 2 7 -5 8 -1 18 11 27 10 8 18 16 17 18 -7 12 -2 25 7 20 6 -4 10 -3 9 2 -4
20 2 44 9 39 4 -2 14 5 22 17 12 20 12 21 -4 8 -14 -12 -16 -12 -10 2 3 8 12
18 20 21 8 3 14 12 14 19 0 8 7 20 15 27 8 7 15 20 15 29 0 9 11 29 26 44 14
15 23 31 19 36 -3 5 0 11 5 13 6 2 12 10 13 18 4 25 18 41 29 34 6 -4 8 -2 4
4 -3 6 1 17 9 26 9 8 15 17 14 18 -5 7 13 48 21 48 9 0 25 39 22 53 -1 4 5 7
13 7 9 0 12 6 8 17 -4 11 -3 14 5 9 8 -5 12 0 12 14 0 13 4 19 12 14 6 -4 8
-3 4 4 -3 6 -2 13 4 17 6 4 8 10 5 15 -3 4 2 10 10 14 8 3 15 14 15 25 0 10 7
22 16 25 8 3 13 10 10 15 -4 5 0 16 8 24 8 8 12 17 9 21 -4 3 -1 6 6 6 7 0 10
4 7 9 -3 5 1 12 10 15 9 4 14 13 10 21 -3 9 0 15 10 15 8 0 12 5 9 10 -3 6 -1
10 5 10 6 0 9 4 5 10 -3 5 5 20 17 32 13 13 22 27 20 32 -2 5 4 16 13 26 8 9
12 20 8 23 -3 4 0 7 7 7 7 0 11 3 8 6 -4 3 2 14 13 25 10 10 19 26 19 34 0 8
5 15 11 15 5 0 7 5 4 10 -3 6 -2 10 4 10 5 0 15 16 22 34 7 19 16 33 21 30 5
-3 7 -2 6 3 -4 12 35 83 45 83 4 0 5 5 2 10 -3 6 -1 10 5 10 6 0 8 5 5 10 -3
6 -1 10 5 10 6 0 8 5 5 10 -3 6 1 13 9 16 9 3 13 10 10 15 -3 5 0 9 6 9 6 0 8
5 5 10 -3 6 -1 10 6 10 7 0 10 3 6 6 -3 3 3 15 13 26 23 25 31 56 18 65 -7 3
-8 1 -4 -5 9 -15 -6 -16 -21 -1 -8 8 -13 8 -17 0 -4 -6 -12 -11 -17 -11 -6 0
-7 6 -3 13 5 8 2 8 -9 -2 -14 -11 -17 -11 -17 0 0 9 -3 10 -8 4 -4 -6 -16 -11
-27 -11 -11 0 -23 5 -27 11 -5 7 -8 6 -8 -1 0 -6 -16 -11 -35 -11 -22 0 -32 4
-28 11 4 6 -1 5 -10 -3 -14 -11 -17 -11 -17 0 0 9 -3 10 -8 4 -11 -15 -32 -17
-32 -2 0 9 -2 9 -9 -1 -11 -17 -21 -17 -32 0 -7 11 -9 11 -9 -1 0 -11 -3 -11
-15 -1 -12 10 -18 10 -30 0 -12 -10 -15 -10 -15 1 0 9 -3 10 -8 4 -4 -6 -20
-12 -36 -13 -21 -3 -26 -1 -20 10 6 10 4 10 -9 -1 -14 -11 -17 -11 -17 0 0 9
-3 10 -8 4 -11 -15 -32 -17 -47 -5 -9 8 -15 8 -20 0 -3 -5 -11 -10 -16 -10 -6
0 -7 5 -3 11 4 8 0 8 -15 0 -16 -9 -21 -9 -21 1 0 10 -2 10 -9 0 -11 -17 -21
-17 -32 0 -5 7 -9 8 -9 2 0 -6 -11 -10 -25 -9 -14 2 -25 -2 -25 -7 0 -6 -10
-3 -22 8 -12 10 -18 14 -15 7 9 -15 -132 -14 -152 1 -11 8 -13 8 -7 -1 9 -15
-42 -15 -62 0 -9 7 -11 5 -5 -9 5 -15 4 -17 -8 -8 -8 6 -25 10 -38 8 -13 -3
-31 1 -39 8 -12 10 -14 10 -8 1 9 -15 -42 -15 -62 0 -9 7 -11 5 -6 -9 6 -16 5
-17 -7 -6 -7 6 -17 12 -22 12 -4 0 -5 -6 -1 -12 6 -10 4 -10 -7 -3 -15 11 -95
12 -106 1 -3 -3 -15 2 -26 11 -11 10 -17 12 -13 6 4 -7 3 -13 -1 -13 -5 0 -15
6 -22 13 -11 10 -12 9 -6 -2 6 -11 2 -13 -19 -7 -17 4 -25 3 -22 -3 5 -8 -12
-8 -34 -1 -3 1 -36 2 -75 2 -38 0 -76 6 -84 12 -12 9 -13 8 -6 -3 6 -11 2 -13
-19 -7 -17 4 -25 3 -22 -3 3 -5 -2 -8 -11 -6 -10 2 -18 4 -18 5 0 6 -89 4 -98
-2 -6 -4 -20 1 -31 10 -11 9 -16 11 -12 5 4 -7 3 -13 -1 -13 -5 0 -15 6 -22
13 -11 10 -12 9 -6 -2 6 -11 2 -13 -19 -7 -17 4 -25 3 -22 -3 5 -8 -12 -8 -34
-1 -3 1 -36 2 -75 2 -38 0 -76 6 -84 12 -12 9 -13 8 -6 -3 6 -11 2 -13 -19 -7
-21 5 -26 4 -20 -6 5 -7 -5 -5 -20 6 -16 10 -25 12 -21 5 6 -9 -1 -11 -29 -6
-25 4 -34 2 -30 -5 5 -7 2 -8 -6 -3 -8 5 -46 8 -85 8 -38 0 -76 5 -84 11 -12
9 -13 8 -6 -3 6 -11 2 -13 -19 -7 -21 5 -26 4 -20 -6 5 -7 -5 -5 -20 6 -16 10
-25 12 -21 6 6 -10 1 -11 -19 -6 -17 4 -25 3 -22 -3 6 -10 -19 -9 -29 1 -3 3
-19 4 -36 2 -22 -3 -28 0 -23 9 5 7 1 6 -10 -2 -15 -13 -19 -13 -27 0 -5 9 -9
9 -9 2 0 -15 -60 -14 -79 1 -11 8 -13 8 -8 0 5 -8 -10 -11 -48 -11 -31 0 -58
3 -61 8 -3 5 0 9 6 9 7 0 9 7 6 16 -3 8 -2 13 3 10 12 -8 32 18 34 43 0 11 4
18 8 15 7 -4 17 15 15 29 0 5 7 13 17 18 9 6 17 17 17 24 0 8 5 15 10 15 6 0
9 6 8 13 -2 6 3 11 10 9 8 -1 11 2 7 8 -3 6 1 17 9 26 9 8 16 22 16 30 0 8 5
12 10 9 6 -3 10 3 10 14 0 12 5 21 10 21 6 0 10 7 10 15 0 9 7 18 15 21 8 4
12 10 9 15 -3 5 2 12 10 15 9 3 13 10 10 15 -3 5 2 12 10 15 9 3 16 15 16 25
0 10 5 19 11 19 6 0 8 7 5 16 -3 8 -2 13 3 10 4 -3 17 10 27 29 10 19 22 35
27 35 4 0 6 4 3 9 -3 5 1 14 9 21 8 7 15 19 15 26 0 8 4 14 9 14 5 0 13 9 16
20 4 11 10 18 15 15 5 -3 7 4 5 15 -2 13 1 20 11 20 8 0 12 5 9 10 -3 6 -1 10
4 10 6 0 11 5 11 11 0 7 8 18 18 26 9 8 11 12 5 8 -9 -4 -11 -1 -7 9 3 9 10
13 15 10 5 -3 9 -2 9 3 0 11 112 9 129 -2 10 -5 12 -4 7 4 -6 8 0 10 18 5 18
-4 26 -2 26 7 0 8 6 5 16 -7 8 -10 13 -13 9 -6 -4 7 0 12 10 12 10 0 13 -5 9
-12 -4 -7 2 -5 13 5 14 12 23 15 28 8 3 -6 15 -11 26 -11 14 0 18 4 13 13 -5
8 -2 8 9 -2 14 -11 20 -11 34 0 9 8 14 9 10 3 -4 -7 3 -14 18 -16 13 -3 22 -1
19 4 -4 5 11 7 36 3 28 -4 47 -2 58 7 10 8 13 9 9 1 -5 -8 1 -11 20 -9 16 1
40 -1 56 -5 16 -5 25 -4 22 2 -4 5 3 9 15 9 14 0 19 -4 14 -12 -4 -7 2 -5 13
5 12 11 24 14 27 9 8 -14 76 -13 76 1 0 6 7 2 16 -9 8 -10 13 -14 10 -8 -6 12
125 11 145 -2 8 -4 9 -3 5 4 -5 8 1 12 14 12 14 0 19 -4 14 -12 -4 -7 2 -5 13
5 12 11 24 14 27 9 8 -14 76 -13 76 1 0 6 7 2 16 -9 8 -10 13 -14 10 -9 -6 13
143 13 164 0 9 -5 11 -4 6 4 -6 8 0 10 18 5 18 -4 26 -2 26 7 0 8 6 5 16 -7 8
-10 13 -13 9 -6 -4 7 0 12 10 12 10 0 13 -5 9 -12 -4 -7 2 -5 13 5 14 12 23
15 28 8 3 -6 15 -11 26 -11 14 0 18 4 13 13 -5 8 -2 8 9 -2 14 -11 20 -11 34
0 9 8 14 9 10 3 -4 -7 3 -14 18 -16 13 -3 22 -1 19 4 -4 5 11 7 36 3 28 -4 47
-2 58 7 10 8 13 8 9 1 -5 -8 6 -11 40 -9 27 2 56 -1 67 -6 13 -7 16 -7 11 1
-5 8 1 10 19 5 18 -4 26 -2 26 7 0 8 6 5 16 -7 8 -10 13 -13 9 -6 -4 7 0 12
10 12 10 0 13 -5 9 -12 -4 -7 2 -5 13 5 14 12 23 15 28 8 3 -6 15 -11 26 -11
14 0 18 4 13 13 -5 8 -2 8 9 -2 14 -11 20 -11 34 0 9 8 14 9 10 3 -4 -7 3 -14
18 -16 13 -3 22 -1 19 4 -4 5 11 7 36 3 28 -4 47 -2 58 7 10 8 13 8 9 1 -5 -8
6 -11 40 -9 27 2 56 -1 67 -6 13 -7 16 -7 11 1 -5 8 1 10 19 5 18 -4 26 -2 26
7 0 8 6 5 16 -7 8 -10 13 -13 9 -6 -4 7 0 12 10 12 10 0 13 -5 9 -12 -4 -7 2
-5 13 5 14 12 23 15 28 8 3 -6 15 -11 26 -11 14 0 18 4 13 13 -5 8 -2 8 9 -2
14 -11 20 -11 34 0 9 8 14 9 10 3 -5 -8 4 -12 27 -12 19 0 40 -3 47 -8 8 -4
10 -3 5 4 -5 8 1 12 14 12 14 0 19 -4 14 -12 -4 -7 2 -5 13 5 12 11 24 14 27
9 8 -14 76 -13 76 1 0 6 7 2 16 -9 8 -10 13 -14 10 -8 -6 12 125 11 145 -2 8
-4 9 -3 5 4 -5 8 1 12 14 12 14 0 19 -4 14 -12 -4 -7 2 -5 13 5 12 11 24 14
27 9 8 -14 76 -13 76 1 0 6 7 2 16 -9 8 -10 13 -14 10 -9 -6 13 143 13 164 0
9 -5 11 -4 6 4 -6 8 0 10 18 5 18 -4 26 -2 26 7 0 8 6 5 16 -7 8 -10 13 -13 9
-6 -4 7 0 12 10 12 10 0 13 -5 9 -12 -4 -7 2 -5 13 5 14 12 23 15 28 8 3 -6
15 -11 26 -11 14 0 18 4 13 13 -5 8 -2 8 9 -2 14 -11 20 -11 34 0 9 8 14 9 10
3 -4 -7 3 -14 18 -16 13 -3 22 -1 19 4 -4 5 11 7 36 3 28 -4 47 -2 58 7 10 8
13 8 9 1 -5 -8 6 -11 40 -9 27 2 56 -1 67 -6 13 -7 16 -7 11 1 -5 8 1 10 19 5
18 -4 26 -2 26 7 0 8 6 5 16 -7 8 -10 13 -13 9 -6 -4 7 0 12 10 12 10 0 13 -5
9 -12 -4 -7 2 -5 13 5 14 12 23 15 28 8 3 -6 15 -11 26 -11 14 0 18 4 13 13
-5 8 -2 8 9 -2 14 -11 20 -11 34 0 9 8 14 9 10 3 -4 -7 3 -14 18 -16 13 -3 22
-1 19 4 -4 5 11 7 36 3 28 -4 47 -2 58 7 10 8 13 8 9 1 -5 -8 6 -11 40 -9 27
2 56 -1 67 -6 13 -7 16 -7 11 1 -5 8 1 10 19 5 18 -4 26 -2 26 7 0 8 6 5 16
-7 8 -10 13 -13 9 -6 -4 7 0 12 10 12 10 0 13 -5 9 -12 -4 -7 2 -5 13 5 14 12
23 15 28 8 3 -6 15 -11 26 -11 14 0 18 4 13 13 -5 8 -2 8 9 -2 14 -11 20 -11
34 0 9 8 14 9 10 3 -5 -8 4 -12 27 -12 19 0 40 -3 47 -8 8 -4 10 -3 5 4 -5 8
1 12 14 12 14 0 19 -4 14 -12 -4 -7 2 -5 13 5 12 11 24 14 27 9 8 -14 76 -13
76 1 0 6 7 2 16 -9 8 -10 13 -14 10 -8 -6 12 125 11 145 -2 8 -4 9 -3 5 4 -5
8 1 12 14 12 14 0 19 -4 14 -12 -4 -7 2 -5 13 5 12 11 24 14 27 9 8 -14 76
-13 76 1 0 6 7 2 16 -9 8 -10 13 -14 10 -9 -6 13 143 13 164 0 9 -5 11 -4 6 4
-6 8 0 10 18 5 18 -4 26 -2 26 7 0 8 6 5 16 -7 8 -10 13 -13 9 -6 -4 7 0 12
10 12 10 0 13 -5 9 -12 -4 -7 2 -5 13 5 14 12 23 15 28 8 3 -6 15 -11 26 -11
14 0 18 4 13 13 -5 8 -2 8 9 -2 14 -11 20 -11 34 0 9 8 14 9 10 3 -4 -7 3 -14
18 -16 13 -3 22 -1 19 4 -4 5 11 7 36 3 28 -4 47 -2 58 7 10 8 13 9 9 1 -5 -8
1 -11 20 -10 18 2 32 10 38 25 5 12 13 22 18 22 4 0 5 5 2 10 -3 6 -2 10 3 10
6 0 13 11 16 25 4 14 12 25 19 25 8 0 7 4 -3 10 -11 7 -11 10 -2 10 7 0 11 4
7 9 -3 5 -1 12 5 16 5 3 10 15 10 26 0 11 4 18 9 15 5 -4 8 2 6 11 -1 10 2 24
8 31 5 6 6 12 2 12 -4 0 -2 7 5 15 10 12 10 15 -1 15 -10 1 -8 4 4 11 13 8 15
14 7 30 -8 14 -8 19 1 17 18 -4 20 23 22 235 2 141 -1 196 -9 193 -6 -2 -11 2
-11 10 0 7 4 11 9 8 4 -3 8 -1 8 4 0 6 -8 13 -17 16 -12 5 -14 9 -5 18 9 9 7
17 -6 32 -9 11 -11 16 -3 11 8 -4 6 3 -5 21 -11 15 -13 25 -6 21 17 -11 15 -2
-3 17 -8 8 -16 26 -17 40 -1 14 -6 26 -10 26 -4 0 -8 9 -8 20 0 11 -4 20 -10
20 -5 0 -10 9 -10 21 0 11 -4 17 -10 14 -6 -3 -7 1 -4 9 3 9 1 16 -5 16 -6 0
-10 3 -10 8 3 16 -2 31 -13 44 -20 21 -78 106 -78 113 0 4 -10 16 -22 26 -11
11 -18 19 -15 19 3 0 -12 18 -34 40 -21 21 -39 44 -39 50 0 6 -4 9 -9 6 -5 -3
-16 6 -25 19 -9 14 -21 23 -26 20 -5 -3 -11 4 -15 15 -4 11 -10 18 -15 15 -4
-3 -10 2 -14 10 -3 8 -12 15 -20 15 -7 0 -17 7 -20 16 -3 8 -10 12 -16 9 -5
-3 -10 -1 -10 4 0 6 -7 11 -15 11 -8 0 -15 4 -15 8 0 10 -50 37 -62 34 -5 -1
-8 3 -8 10 0 6 -3 9 -6 5 -4 -3 -13 1 -21 9 -8 8 -18 12 -23 9 -4 -3 -10 2
-14 10 -3 8 -12 12 -21 9 -8 -3 -15 -1 -15 6 0 6 -4 9 -9 5 -5 -3 -13 0 -16 6
-4 5 -13 8 -20 5 -8 -3 -15 0 -17 6 -2 6 -12 12 -21 14 -11 1 -15 -2 -10 -9 3
-7 -2 -5 -13 4 -10 9 -25 14 -33 11 -8 -2 -11 0 -7 6 3 5 -4 10 -17 10 -61 2
-76 5 -70 16 4 6 -1 5 -10 -3 -13 -11 -17 -11 -17 -1 0 8 -3 10 -7 7 -3 -4
-13 -1 -21 6 -13 10 -15 9 -9 -7 6 -16 5 -17 -8 -6 -8 7 -26 10 -40 8 -13 -3
-22 -2 -20 2 3 5 -2 10 -10 14 -8 3 -17 0 -21 -6 -5 -7 -2 -8 6 -3 8 5 11 4 6
-3 -4 -6 -17 -8 -34 -4 -15 4 -36 7 -47 7 -11 -1 -25 3 -32 7 -7 6 -14 4 -19
-3 -5 -8 -3 -9 6 -4 8 5 11 4 6 -3 -4 -7 -17 -8 -34 -2 -16 4 -36 4 -45 -2
-13 -7 -15 -5 -10 8 6 15 4 15 -21 -1 -25 -17 -26 -17 -19 1 5 16 4 17 -8 7
-8 -6 -30 -10 -49 -9 -19 1 -43 -2 -52 -6 -14 -7 -16 -5 -11 8 5 15 3 15 -21
-1 -25 -17 -26 -17 -19 1 5 15 4 17 -8 8 -19 -15 -121 -16 -112 0 5 8 2 7 -8
-1 -15 -12 -36 -12 -56 0 -6 4 -15 2 -19 -4 -5 -8 -3 -9 6 -4 9 5 11 4 6 -4
-4 -6 -10 -9 -14 -7 -4 2 -24 7 -45 10 -29 5 -36 3 -31 -6 5 -8 -3 -6 -17 4
-24 16 -27 16 -44 0 -10 -9 -15 -11 -11 -4 4 6 4 12 -1 13 -4 0 -16 2 -26 4
-9 2 -15 -1 -11 -6 3 -5 10 -6 16 -3 7 4 8 2 4 -4 -7 -11 -31 -7 -53 10 -7 6
-14 4 -19 -3 -5 -8 -3 -9 6 -4 9 5 11 4 6 -4 -4 -6 -10 -9 -14 -7 -4 2 -24 7
-45 10 -29 5 -36 3 -31 -6 5 -8 -3 -6 -17 4 -24 16 -27 16 -44 0 -10 -9 -15
-11 -11 -4 4 6 4 12 -1 13 -4 0 -16 2 -26 4 -9 2 -15 -1 -11 -6 3 -5 10 -6 16
-3 7 4 8 2 4 -4 -7 -11 -31 -7 -53 10 -7 6 -14 4 -19 -3 -5 -8 -3 -9 6 -4 8 5
11 4 6 -3 -4 -7 -17 -8 -34 -2 -16 4 -36 4 -45 -2 -13 -7 -15 -5 -10 8 6 15 4
15 -21 -1 -25 -17 -26 -17 -19 1 5 16 4 17 -8 7 -8 -6 -30 -10 -49 -9 -19 1
-43 -2 -52 -6 -14 -7 -16 -5 -11 8 5 15 3 15 -21 -1 -25 -17 -26 -17 -19 1 5
16 4 17 -8 8 -15 -12 -132 -14 -144 -2 -11 11 -36 -3 -28 -16 5 -8 3 -8 -8 0
-8 6 -23 14 -33 18 -16 5 -17 4 -6 -9 11 -13 10 -14 -6 -9 -10 4 -24 11 -31
16 -7 6 -14 4 -19 -3 -5 -8 -3 -9 6 -4 9 5 11 4 6 -4 -4 -6 -10 -9 -14 -7 -4
2 -24 7 -45 10 -29 5 -36 3 -31 -6 5 -7 -4 -5 -18 4 -15 10 -29 14 -32 9 -3
-5 -17 -8 -31 -8 -15 0 -22 4 -18 11 4 7 1 6 -8 -1 -8 -7 -28 -10 -43 -7 -20
3 -26 1 -21 -8 4 -7 0 -5 -7 4 -13 15 -15 15 -26 0 -7 -9 -10 -12 -7 -6 7 16
-22 26 -31 12 -5 -7 -2 -8 6 -3 9 5 11 4 6 -4 -4 -6 -10 -9 -14 -7 -4 2 -24 7
-45 10 -29 5 -36 3 -31 -6 5 -7 -4 -5 -18 4 -15 10 -29 14 -32 9 -7 -11 -55
-11 -62 0 -2 4 -11 6 -19 3 -8 -4 -12 -11 -8 -18 5 -8 3 -8 -8 0 -8 6 -23 14
-33 18 -16 5 -17 4 -6 -9 11 -13 10 -14 -6 -9 -10 4 -24 11 -31 16 -7 6 -14 4
-19 -3 -5 -8 -3 -9 6 -4 9 5 11 4 6 -4 -4 -6 -10 -9 -14 -7 -4 2 -24 7 -45 10
-29 5 -36 3 -31 -6 5 -7 -4 -5 -18 4 -15 10 -29 14 -32 9 -3 -5 -17 -8 -31 -8
-15 0 -22 4 -18 11 4 7 1 6 -8 -1 -8 -7 -28 -10 -43 -7 -20 3 -26 1 -21 -8 4
-7 0 -5 -7 4 -13 15 -15 15 -26 0 -7 -9 -10 -12 -7 -6 7 16 -22 26 -31 12 -5
-7 -2 -8 6 -3 9 5 11 4 6 -4 -4 -6 -10 -9 -14 -7 -4 2 -24 7 -45 10 -29 5 -36
3 -31 -6 5 -7 -4 -5 -18 4 -15 10 -29 14 -32 9 -7 -11 -55 -11 -62 0 -2 4 -11
6 -19 3 -8 -4 -12 -11 -8 -18 5 -8 3 -8 -8 0 -8 6 -23 14 -33 18 -16 5 -17 4
-6 -9 11 -13 10 -14 -6 -9 -10 4 -24 11 -31 16 -7 6 -14 4 -19 -3 -5 -8 -3 -9
6 -4 9 5 11 4 6 -4 -4 -6 -10 -9 -14 -7 -4 2 -24 7 -45 10 -29 5 -36 3 -31 -6
5 -7 -4 -5 -18 4 -15 10 -29 14 -32 9 -3 -5 -17 -8 -31 -8 -15 0 -22 4 -18 11
4 7 1 6 -8 -1 -8 -7 -28 -10 -43 -7 -20 3 -26 1 -21 -8 4 -7 0 -5 -7 4 -13 15
-15 15 -26 0 -7 -9 -10 -12 -7 -6 7 16 -22 26 -31 12 -5 -7 -2 -8 6 -3 9 5 11
4 6 -4 -4 -6 -10 -9 -14 -7 -4 2 -24 7 -45 10 -29 5 -36 3 -31 -6 5 -7 -4 -5
-18 4 -15 10 -29 14 -32 9 -7 -11 -55 -11 -62 0 -2 4 -11 6 -19 3 -8 -4 -12
-11 -8 -18 5 -8 3 -8 -8 0 -8 6 -23 14 -33 18 -16 5 -17 4 -6 -9 11 -13 10
-14 -6 -9 -10 4 -24 11 -31 16 -7 6 -14 4 -19 -3 -5 -8 -3 -9 6 -4 9 5 11 4 6
-4 -4 -6 -10 -9 -14 -7 -4 2 -24 7 -45 10 -29 5 -36 3 -31 -6 5 -7 -4 -5 -18
4 -15 10 -29 14 -32 9 -3 -5 -17 -8 -31 -8 -15 0 -22 4 -18 11 4 7 1 6 -8 -1
-8 -7 -28 -10 -43 -7 -20 3 -26 1 -21 -8 4 -7 0 -5 -7 4 -13 15 -15 15 -26 0
-7 -9 -10 -12 -7 -6 7 16 -22 26 -31 12 -5 -7 -2 -8 6 -3 9 5 11 4 6 -4 -4 -6
-10 -9 -14 -7 -4 2 -24 7 -45 10 -29 5 -36 3 -31 -6 5 -8 -3 -6 -17 4 -24 16
-27 16 -44 0 -10 -9 -15 -12 -11 -6 3 7 -1 15 -10 18 -9 3 -12 2 -9 -5 7 -11
-32 -8 -52 4 -6 4 -15 2 -19 -4 -5 -8 -3 -9 6 -4 9 5 11 4 6 -4 -4 -6 -10 -9
-14 -7 -4 2 -24 7 -45 10 -29 5 -36 3 -31 -6 5 -8 -3 -6 -17 4 -24 16 -27 16
-44 0 -10 -9 -15 -11 -11 -4 4 6 4 12 -1 13 -4 0 -16 2 -26 4 -9 2 -15 -1 -11
-6 3 -5 10 -6 16 -3 7 4 8 2 4 -4 -7 -11 -31 -7 -53 10 -7 6 -14 4 -19 -3 -5
-8 -3 -9 6 -4 9 5 11 4 6 -4 -4 -6 -10 -9 -14 -7 -4 2 -24 7 -45 10 -29 5 -36
3 -31 -6 5 -8 -3 -6 -17 4 -24 16 -27 16 -44 0 -10 -9 -15 -11 -11 -4 4 6 4
12 -1 13 -4 0 -16 2 -26 4 -9 2 -15 -1 -11 -6 3 -5 10 -6 16 -3 7 4 8 2 4 -4
-7 -11 -31 -7 -53 10 -7 6 -14 4 -19 -3 -5 -8 -3 -9 6 -4 8 5 11 4 6 -3 -4 -7
-17 -8 -34 -2 -16 4 -36 4 -45 -2 -13 -7 -15 -5 -10 8 6 15 4 15 -21 -1 -25
-17 -26 -17 -19 1 5 16 4 17 -8 7 -8 -6 -30 -10 -49 -9 -19 1 -43 -2 -52 -6
-14 -7 -16 -5 -11 8 5 15 3 15 -21 -1 -25 -17 -26 -17 -19 1 5 15 4 17 -8 8
-19 -15 -121 -16 -112 0 5 8 2 7 -8 -1 -15 -12 -36 -12 -56 0 -6 4 -15 2 -19
-4 -5 -8 -3 -9 6 -4 9 5 11 4 6 -4 -4 -6 -10 -9 -14 -7 -4 2 -24 7 -45 10 -29
5 -36 3 -31 -6 5 -8 -3 -6 -17 4 -24 16 -27 16 -44 0 -10 -9 -15 -11 -11 -4 4
6 4 12 -1 13 -4 0 -16 2 -26 4 -9 2 -15 -1 -11 -6 3 -5 10 -6 16 -3 7 4 8 2 4
-4 -7 -11 -31 -7 -53 10 -7 6 -14 4 -19 -3 -5 -8 -3 -9 6 -4 9 5 11 4 6 -4 -4
-6 -10 -9 -14 -7 -4 2 -24 7 -45 10 -29 5 -36 3 -31 -6 5 -8 -3 -6 -17 4 -24
16 -27 16 -44 0 -10 -9 -15 -11 -11 -4 4 6 4 12 -1 13 -4 0 -16 2 -26 4 -9 2
-15 -1 -11 -6 3 -5 10 -6 16 -3 7 4 8 2 4 -4 -7 -11 -31 -7 -53 10 -7 6 -14 4
-19 -3 -5 -8 -3 -9 6 -4 8 5 11 4 6 -3 -4 -7 -17 -8 -34 -2 -16 4 -36 4 -45
-2 -13 -7 -15 -5 -10 8 6 15 4 15 -21 -1 -25 -17 -26 -17 -19 1 5 16 4 17 -8
7 -8 -6 -30 -10 -49 -9 -19 1 -43 -2 -52 -6 -14 -7 -16 -5 -11 8 5 15 3 15
-21 -1 -25 -17 -26 -17 -19 1 5 16 4 17 -8 7 -8 -6 -30 -10 -49 -9 -19 1 -41
-3 -49 -9 -11 -7 -13 -7 -8 1 4 7 0 15 -9 18 -9 3 -12 2 -9 -5 7 -11 -32 -8
-52 4 -6 4 -15 2 -19 -4z"/>
<path d="M7878 4894 c-4 -3 -31 -6 -62 -6 -31 -1 -56 -5 -56 -10 0 -5 -4 -6
-10 -3 -9 6 -14 -8 -11 -27 0 -5 -4 -8 -10 -8 -5 0 -7 -4 -4 -10 3 -5 -1 -10
-10 -10 -9 0 -14 -4 -10 -9 3 -5 -1 -16 -9 -24 -8 -8 -12 -17 -9 -21 4 -3 1
-6 -6 -6 -7 0 -9 -4 -6 -10 3 -5 1 -10 -4 -10 -6 0 -11 -6 -11 -13 0 -7 -10
-24 -22 -37 -13 -14 -21 -25 -19 -25 9 0 -11 -45 -20 -45 -5 0 -9 -7 -9 -15 0
-8 -5 -15 -11 -15 -5 0 -8 -4 -4 -10 3 -5 -3 -18 -14 -29 -11 -11 -17 -22 -14
-25 4 -3 1 -6 -5 -6 -6 0 -9 -7 -5 -17 4 -11 3 -14 -5 -9 -7 4 -12 1 -12 -8 0
-9 -5 -16 -11 -16 -5 0 -7 -4 -4 -10 3 -5 1 -10 -4 -10 -6 0 -11 -7 -11 -15 0
-9 -9 -25 -20 -37 -10 -12 -17 -25 -14 -29 2 -4 -6 -15 -18 -23 -15 -11 -18
-16 -8 -16 12 -1 11 -3 -2 -11 -10 -5 -18 -16 -18 -23 0 -7 -9 -22 -20 -34
-12 -12 -18 -22 -14 -22 4 0 -1 -9 -11 -20 -10 -11 -14 -20 -10 -20 5 0 0 -7
-11 -16 -10 -8 -12 -13 -4 -9 9 4 6 -2 -5 -12 -19 -18 -27 -35 -28 -60 0 -7
-4 -10 -8 -8 -3 3 -12 -9 -19 -25 -7 -17 -17 -30 -22 -30 -5 0 -7 -4 -4 -9 3
-5 -1 -11 -9 -15 -8 -3 -15 -14 -15 -24 0 -11 -7 -25 -15 -32 -8 -6 -13 -17
-12 -23 1 -7 -4 -11 -12 -9 -12 3 -12 1 0 -14 10 -13 11 -16 1 -10 -9 5 -15 1
-19 -13 -3 -12 -10 -21 -16 -21 -6 0 -7 -3 -4 -7 4 -3 -1 -15 -10 -26 -13 -15
-14 -18 -3 -12 8 4 5 -2 -7 -14 -13 -12 -23 -29 -23 -37 0 -8 -4 -13 -9 -10
-5 3 -12 -1 -15 -10 -4 -10 -2 -13 7 -9 6 4 4 0 -5 -8 -10 -8 -15 -17 -11 -20
3 -4 1 -7 -6 -7 -8 0 -11 -6 -7 -16 3 -8 2 -12 -4 -9 -6 3 -10 -1 -10 -9 0 -9
-5 -16 -12 -16 -6 0 -8 -3 -5 -7 4 -3 -1 -12 -11 -20 -10 -9 -11 -12 -2 -7 11
6 10 2 -2 -13 -10 -11 -18 -25 -18 -32 0 -7 -4 -9 -10 -6 -5 3 -10 -3 -10 -14
0 -12 -5 -21 -11 -21 -5 0 -7 -4 -4 -10 3 -5 1 -10 -4 -10 -6 0 -11 -5 -11
-11 0 -6 -9 -24 -21 -40 -11 -16 -18 -29 -14 -29 3 0 -3 -10 -14 -22 -11 -11
-18 -25 -15 -30 3 -4 0 -8 -5 -8 -6 0 -11 -6 -11 -13 0 -7 -9 -23 -20 -35 -11
-12 -20 -28 -20 -37 0 -8 -5 -15 -11 -15 -5 0 -8 -4 -4 -9 3 -6 -2 -14 -11
-19 -9 -5 -17 -20 -17 -34 -1 -15 -6 -24 -10 -21 -5 3 -11 -4 -14 -16 -3 -11
-9 -18 -14 -15 -5 3 -10 -2 -10 -10 -1 -9 -2 -21 -3 -27 0 -6 -10 -17 -20 -25
-11 -8 -16 -14 -12 -14 5 0 3 -7 -4 -15 -7 -8 -9 -15 -4 -15 5 0 1 -5 -9 -11
-9 -6 -15 -14 -12 -20 4 -5 1 -9 -4 -9 -6 0 -11 -6 -11 -14 0 -7 -7 -19 -15
-26 -9 -7 -14 -19 -11 -27 3 -8 2 -12 -3 -9 -5 3 -14 -8 -20 -25 -6 -17 -15
-28 -21 -24 -6 4 -10 3 -9 -2 4 -15 -13 -63 -22 -63 -5 0 -9 -6 -9 -13 0 -7
-9 -23 -19 -34 -11 -12 -17 -24 -14 -27 4 -3 1 -6 -6 -6 -7 0 -9 -4 -6 -10 3
-5 1 -10 -5 -10 -7 0 -10 -7 -6 -15 3 -8 0 -14 -7 -12 -7 1 -11 -4 -9 -10 1
-7 -3 -13 -9 -13 -5 0 -8 -4 -5 -8 3 -5 -4 -18 -14 -30 -11 -12 -20 -28 -20
-37 0 -8 -4 -15 -9 -15 -5 0 -15 -16 -22 -34 -7 -19 -16 -33 -21 -30 -4 3 -8
-4 -8 -14 0 -11 -7 -22 -15 -26 -8 -3 -15 -9 -14 -13 3 -19 -3 -32 -26 -59
-14 -16 -25 -34 -25 -40 0 -7 -11 -19 -25 -28 -26 -17 -50 -22 -25 -5 11 7 -1
8 -42 4 -44 -5 -58 -3 -58 7 0 8 -5 6 -11 -4 -9 -17 -11 -17 -37 0 -14 9 -23
11 -19 5 5 -7 4 -13 -2 -13 -6 0 -11 6 -11 13 0 6 -5 4 -11 -6 -7 -12 -15 -15
-22 -9 -18 13 -60 13 -69 -1 -6 -9 -8 -9 -8 0 0 9 -19 11 -65 8 -46 -3 -65 0
-65 8 0 7 -5 4 -11 -5 -9 -17 -11 -17 -37 0 -14 9 -23 11 -19 5 5 -7 4 -13 -2
-13 -6 0 -11 6 -11 13 0 6 -5 4 -11 -6 -7 -12 -15 -15 -22 -9 -18 13 -60 13
-69 -1 -6 -9 -8 -9 -8 0 0 9 -19 11 -65 8 -46 -3 -65 0 -65 8 0 7 -5 4 -11 -5
-9 -17 -11 -17 -37 0 -14 9 -23 11 -19 5 5 -7 4 -13 -2 -13 -6 0 -11 6 -11 13
0 6 -5 4 -11 -6 -7 -12 -15 -15 -22 -9 -18 13 -60 13 -69 -1 -6 -9 -8 -9 -8 0
0 9 -19 11 -65 8 -46 -3 -65 0 -65 8 0 7 -5 4 -11 -6 -7 -12 -15 -15 -22 -9
-19 13 -67 13 -67 -1 0 -8 -3 -8 -8 -2 -9 14 -145 14 -154 1 -5 -8 -8 -7 -8 0
0 8 -20 11 -57 9 -33 -2 -64 2 -72 9 -12 8 -13 8 -7 -1 9 -16 5 -16 -30 -3
-24 9 -25 9 -14 -5 11 -13 10 -14 -4 -9 -9 3 -16 11 -16 18 0 7 -3 6 -8 -2 -7
-10 -15 -10 -36 -2 -37 14 -43 13 -20 -5 18 -14 18 -14 -3 -8 -13 3 -23 10
-23 17 0 6 -5 3 -11 -7 -7 -12 -15 -15 -22 -9 -18 13 -60 13 -69 -1 -6 -9 -8
-9 -8 0 0 9 -19 11 -65 8 -46 -3 -65 0 -65 8 0 7 -5 4 -11 -6 -8 -14 -14 -16
-25 -6 -8 6 -17 9 -21 6 -3 -4 -13 -1 -21 6 -13 9 -14 9 -8 0 9 -16 5 -16 -30
-3 -24 9 -25 9 -14 -5 11 -13 10 -14 -4 -9 -9 3 -16 11 -16 18 0 7 -3 6 -8 -2
-7 -10 -15 -10 -37 -2 -25 10 -27 9 -15 -5 12 -15 11 -15 -14 -4 -23 11 -29
10 -37 -2 -5 -8 -9 -9 -9 -3 0 13 -143 13 -152 -1 -5 -7 -8 -6 -8 1 0 8 -20
11 -57 9 -33 -2 -64 2 -72 9 -12 8 -13 8 -7 -1 9 -16 5 -16 -30 -3 -24 9 -25
9 -14 -5 11 -13 10 -14 -4 -9 -9 3 -16 11 -16 18 0 7 -3 6 -8 -2 -7 -10 -15
-10 -36 -2 -37 14 -43 13 -20 -5 18 -14 18 -14 -3 -8 -13 3 -23 10 -23 17 0 6
-5 3 -11 -7 -7 -12 -15 -15 -22 -9 -18 13 -60 13 -69 -1 -6 -9 -8 -9 -8 0 0 9
-19 11 -65 8 -46 -3 -65 0 -65 8 0 7 -5 4 -11 -6 -8 -14 -14 -16 -25 -6 -8 6
-17 9 -21 6 -3 -4 -13 -1 -21 6 -13 9 -14 9 -8 0 9 -16 5 -16 -30 -3 -24 9
-25 9 -14 -5 11 -13 10 -14 -4 -9 -9 3 -16 11 -16 18 0 7 -3 6 -8 -2 -7 -10
-15 -10 -37 -2 -25 10 -27 9 -15 -5 12 -15 11 -15 -14 -4 -23 11 -29 10 -37
-2 -5 -8 -9 -9 -9 -3 0 13 -143 13 -152 -1 -5 -7 -8 -6 -8 1 0 8 -20 11 -57 9
-33 -2 -64 2 -72 9 -12 8 -13 8 -7 -2 9 -15 5 -15 -30 -2 -24 9 -25 9 -14 -5
11 -13 10 -14 -4 -9 -9 3 -16 11 -16 18 0 7 -3 6 -8 -2 -7 -10 -15 -10 -36 -2
-37 14 -43 13 -20 -5 18 -14 18 -14 -3 -8 -13 3 -23 10 -23 17 0 6 -5 3 -11
-7 -7 -12 -15 -15 -22 -9 -18 13 -60 13 -69 -1 -6 -9 -8 -9 -8 0 0 9 -19 11
-65 8 -46 -3 -65 0 -65 8 0 7 -5 4 -11 -6 -8 -14 -14 -16 -25 -6 -8 6 -17 9
-21 6 -3 -4 -13 -1 -21 6 -13 9 -14 9 -8 0 9 -16 5 -16 -30 -3 -24 9 -25 9
-14 -5 11 -13 10 -14 -4 -9 -9 3 -16 11 -16 18 0 7 -3 6 -8 -2 -7 -10 -15 -10
-37 -2 -25 10 -27 9 -15 -5 12 -15 11 -15 -14 -4 -23 11 -29 10 -37 -2 -5 -8
-9 -9 -9 -3 0 13 -143 13 -152 -1 -5 -7 -8 -6 -8 1 0 8 -20 11 -57 9 -33 -2
-64 2 -72 9 -12 8 -13 8 -7 -2 9 -15 5 -15 -30 -2 -24 9 -25 9 -14 -5 11 -13
10 -14 -4 -9 -9 3 -16 11 -16 18 0 7 -3 6 -8 -2 -7 -10 -15 -10 -37 -2 -15 6
-30 8 -33 5 -3 -3 0 -5 6 -5 7 0 12 -4 12 -10 0 -5 -6 -7 -14 -4 -8 3 -17 0
-22 -7 -5 -8 -3 -10 7 -5 8 4 7 2 -2 -6 -9 -7 -19 -23 -23 -36 -4 -12 -12 -19
-18 -16 -6 4 -5 -3 2 -16 7 -12 8 -20 2 -16 -9 5 -20 -10 -27 -36 -2 -5 -4
-11 -5 -15 -1 -5 -2 -11 -1 -16 0 -4 -5 -7 -12 -7 -8 0 -7 -4 3 -10 10 -6 11
-10 3 -10 -7 0 -12 -3 -12 -8 3 -18 -2 -33 -9 -28 -5 3 -6 -8 -4 -25 3 -23 1
-29 -14 -29 -14 0 -16 -2 -6 -9 16 -10 15 -21 -4 -42 -8 -9 -11 -19 -7 -23 10
-10 11 -46 1 -46 -5 0 -6 -5 -3 -10 4 -6 2 -17 -5 -25 -7 -9 -8 -15 0 -20 5
-3 10 -11 10 -16 0 -6 -5 -7 -11 -3 -8 4 -8 0 0 -15 9 -16 9 -21 -1 -21 -10 0
-10 -2 1 -9 9 -6 10 -10 2 -16 -9 -5 -9 -10 0 -21 9 -11 8 -14 -2 -14 -11 0
-11 -2 1 -10 13 -9 13 -11 0 -20 -9 -6 -10 -10 -3 -10 6 0 12 -10 12 -22 0
-13 1 -33 1 -45 0 -12 4 -24 9 -28 5 -3 7 -14 4 -24 -3 -10 0 -22 6 -25 5 -4
7 -14 4 -22 -3 -9 0 -20 8 -25 12 -7 12 -9 -1 -9 -12 0 -12 -2 -2 -9 8 -5 15
-20 15 -35 1 -14 6 -26 10 -26 5 0 5 -4 2 -10 -3 -5 0 -10 7 -10 9 0 9 -3 -2
-10 -13 -8 -12 -10 3 -10 10 0 15 -5 12 -10 -3 -5 0 -10 7 -10 11 0 10 -2 0
-9 -11 -7 -11 -9 2 -14 9 -4 15 -10 14 -14 -1 -4 6 -23 15 -41 10 -17 14 -32
11 -32 -4 0 3 -9 16 -20 13 -11 20 -20 16 -20 -4 0 0 -7 8 -16 9 -8 14 -20 11
-25 -4 -5 2 -9 11 -9 10 0 15 -3 11 -6 -6 -6 -4 -10 40 -61 16 -17 44 -49 63
-72 19 -23 41 -41 48 -41 7 0 10 -5 7 -10 -3 -6 -3 -10 2 -10 7 0 25 -13 79
-59 7 -5 15 -7 18 -4 3 4 6 -1 6 -11 0 -9 5 -14 10 -11 6 3 10 1 10 -5 0 -6 4
-9 9 -6 4 3 16 -3 26 -14 10 -11 24 -16 33 -13 10 4 13 2 8 -5 -4 -7 -1 -12 9
-12 10 0 13 -5 9 -12 -4 -7 -3 -8 4 -4 6 3 33 -4 61 -18 34 -16 52 -20 55 -12
2 6 5 3 5 -6 1 -11 6 -15 16 -12 8 4 15 2 15 -3 0 -5 9 -10 20 -11 11 -1 29
-3 40 -4 11 -1 20 -5 20 -8 0 -3 10 -7 22 -7 13 -1 24 -7 26 -13 4 -12 4763
-15 4760 -3 -3 11 20 73 27 73 3 0 3 -5 -1 -12 -4 -7 -3 -8 4 -4 6 4 9 13 5
21 -3 8 -1 15 5 15 9 0 18 20 20 44 0 5 7 13 16 18 9 5 14 13 11 19 -4 5 2 9
12 10 10 0 13 3 6 6 -10 3 -9 8 2 20 8 8 12 19 9 25 -4 6 -2 8 3 5 10 -6 28
19 25 35 -1 3 5 12 13 18 8 7 15 19 15 26 0 8 5 14 11 14 5 0 8 4 4 9 -3 6 3
14 12 20 10 6 15 11 10 11 -4 0 -1 10 8 23 8 13 12 27 8 32 -5 4 0 5 9 2 10
-3 17 -3 16 1 -4 14 21 72 32 72 6 0 8 5 5 10 -3 6 -1 10 5 10 6 0 8 5 5 10
-3 6 -1 10 5 10 6 0 9 4 5 9 -3 6 1 13 9 18 8 4 15 13 16 18 1 6 6 9 11 8 4
-2 6 4 3 12 -4 8 -1 15 6 15 6 0 8 5 5 10 -3 6 -1 10 5 10 6 0 8 5 5 10 -3 6
-1 10 5 10 7 0 10 7 6 15 -3 8 3 20 14 28 11 8 17 17 13 20 -3 4 -1 7 6 7 7 0
10 4 7 9 -3 5 1 12 10 15 8 3 12 10 9 16 -3 5 -1 10 5 10 7 0 10 6 7 14 -3 7
4 21 14 30 11 9 17 22 13 28 -4 6 -3 8 3 5 5 -3 20 16 33 43 13 28 27 50 32
50 4 0 8 7 8 15 0 8 5 15 10 15 6 0 9 3 9 7 -3 21 2 33 13 27 7 -4 8 -3 4 5
-4 6 0 18 8 27 9 8 16 22 16 30 0 8 4 14 9 14 8 0 17 21 19 44 0 5 7 13 16 18
9 5 13 15 9 26 -3 9 -2 14 2 9 8 -6 54 64 58 88 1 5 11 18 22 28 11 10 14 16
5 12 -12 -5 -12 -4 1 7 9 7 17 16 18 20 6 25 14 37 23 32 5 -3 8 0 7 7 -3 22
12 50 24 42 6 -3 7 -1 3 6 -4 6 -2 18 4 26 7 8 9 15 4 15 -5 0 2 7 14 16 12 8
22 22 22 30 0 9 7 22 15 31 8 8 13 18 10 23 -3 4 2 10 10 14 8 3 15 11 15 17
0 7 8 18 18 26 9 8 11 12 5 8 -7 -3 -13 -2 -13 3 0 6 7 13 16 16 8 3 12 10 9
16 -3 5 -1 10 5 10 6 0 8 5 5 10 -3 6 -2 10 4 10 5 0 13 9 16 20 4 11 11 18
16 15 5 -3 6 1 3 9 -3 9 -2 16 4 16 8 0 20 27 20 47 0 3 7 10 16 15 9 5 14 13
11 17 -2 5 2 14 10 21 8 7 15 19 15 26 0 8 5 14 10 14 6 0 10 6 10 14 0 8 7
22 16 30 8 9 13 16 10 16 -7 0 45 82 57 91 5 3 8 9 8 13 -3 20 0 26 9 21 6 -3
7 1 4 9 -4 9 1 18 10 22 9 3 14 10 11 14 -3 5 3 13 12 19 13 7 14 10 4 11 -10
0 -8 5 6 18 11 9 18 23 15 30 -2 7 2 11 10 10 8 -2 12 4 10 15 -2 9 2 17 8 17
5 0 10 7 10 15 0 9 7 18 15 21 8 4 13 10 10 14 -3 5 -1 11 5 15 6 4 8 11 5 16
-4 5 1 9 9 9 9 0 15 3 15 8 -3 20 2 32 13 26 6 -4 8 -3 4 4 -3 6 -2 13 4 17 6
4 8 11 5 16 -4 5 -1 9 5 9 6 0 8 5 5 10 -3 6 -1 10 6 10 7 0 10 3 6 6 -3 4 -1
12 6 20 23 25 33 39 34 44 2 22 16 49 24 45 8 -6 14 16 10 38 -1 5 3 6 9 2 5
-3 10 1 10 9 0 9 5 16 12 16 6 0 8 3 5 7 -4 3 5 22 20 41 15 20 20 32 12 27
-12 -8 -12 -6 0 8 7 9 17 15 21 12 4 -3 8 1 7 8 -1 32 4 48 13 42 6 -3 11 -1
11 4 1 6 2 16 3 21 0 6 8 15 16 20 8 5 11 10 7 10 -5 0 1 13 12 29 12 16 21
34 21 40 0 6 5 11 11 11 5 0 8 4 4 9 -3 6 2 14 11 19 10 6 15 16 11 26 -4 9
-2 15 6 13 7 -1 11 4 10 11 -2 6 2 12 8 12 6 0 9 7 6 14 -4 9 2 17 13 21 11 3
19 9 19 13 -3 18 2 32 17 46 8 9 16 25 17 35 0 11 6 19 12 18 5 -1 9 4 8 11
-2 6 2 12 8 12 5 0 7 5 4 10 -3 6 -1 10 4 10 6 0 11 7 11 16 0 8 4 13 9 10 5
-4 8 5 7 18 -2 17 1 23 10 19 8 -3 14 2 14 11 0 15 25 62 40 76 17 16 33 43
23 36 -7 -4 -13 -3 -13 2 0 5 10 12 22 15 19 5 20 8 7 23 -9 12 -10 15 -1 10
7 -4 12 -2 12 4 0 6 4 9 9 6 4 -3 7 6 5 19 -1 14 1 23 6 20 8 -5 18 13 16 28
0 5 7 13 16 18 10 5 15 16 11 25 -3 9 0 14 7 12 7 -2 14 6 16 17 1 11 8 21 13
23 6 2 11 12 11 23 0 11 7 19 16 19 9 0 12 5 8 12 -4 6 0 16 8 22 16 11 16 13
25 46 3 11 9 20 14 20 5 0 9 7 9 15 0 8 5 15 11 15 5 0 7 5 4 10 -3 6 -1 10 5
10 6 0 9 4 6 9 -3 4 3 16 14 26 11 10 17 22 14 26 -3 5 0 9 6 9 6 0 8 5 5 10
-3 6 1 13 9 16 9 3 14 10 11 14 -3 5 -1 11 5 15 6 4 8 11 4 16 -3 5 0 8 7 7 7
-2 13 2 14 7 0 6 6 20 13 31 6 12 8 24 5 28 -3 3 2 6 12 6 10 0 15 3 12 6 -10
11 13 45 25 38 6 -4 8 -3 4 4 -3 6 -2 13 4 17 5 3 10 15 10 26 0 10 5 19 11
19 5 0 7 5 4 10 -3 6 -1 10 4 10 6 0 11 4 11 10 0 5 -14 8 -30 6 -17 -2 -33 0
-35 4 -6 10 -45 1 -64 -14 -11 -8 -13 -8 -8 0 5 8 -7 13 -37 15 -24 2 -42 1
-40 -2 5 -9 -49 -4 -64 5 -8 4 -12 0 -12 -11 0 -15 -2 -16 -10 -3 -5 8 -12 11
-16 8 -4 -4 -14 -3 -23 2 -10 5 -23 5 -31 0 -9 -5 -19 -5 -27 2 -7 6 -13 6
-13 1 0 -12 -123 -11 -132 2 -5 7 -8 7 -8 0 0 -5 -11 -11 -25 -11 -14 -1 -23
2 -20 6 3 5 -7 5 -22 1 -16 -4 -43 -6 -61 -4 -19 2 -41 -2 -50 -9 -9 -7 -13
-8 -9 -2 9 16 -133 16 -152 1 -12 -9 -13 -9 -8 0 6 9 -9 12 -58 10 -39 -1 -65
2 -65 8 0 7 -3 7 -8 0 -9 -13 -55 -18 -47 -6 3 6 -6 7 -22 2 -32 -8 -93 -7
-118 3 -9 3 -13 2 -10 -4 5 -8 -70 -4 -85 5 -3 2 -12 0 -20 -5 -9 -5 -19 -5
-27 2 -7 6 -13 6 -13 1 0 -12 -123 -11 -132 2 -5 7 -8 7 -8 0 0 -5 -11 -11
-25 -11 -14 -1 -23 2 -20 6 3 5 -7 5 -22 1 -16 -4 -43 -6 -61 -4 -19 2 -41 -2
-50 -9 -13 -11 -14 -11 -7 1 6 11 2 13 -19 7 -18 -4 -25 -3 -21 4 7 11 2 14
-7 4z"/>
</g>
</svg>
