<?xml version="1.0" standalone="no"?>
<!DOCTYPE svg PUBLIC "-//W3C//DTD SVG 20010904//EN"
 "http://www.w3.org/TR/2001/REC-SVG-20010904/DTD/svg10.dtd">
<svg version="1.0" xmlns="http://www.w3.org/2000/svg"
 width="256.000000pt" height="256.000000pt" viewBox="0 0 256.000000 256.000000"
 preserveAspectRatio="xMidYMid meet">
<metadata>
Created by potrace 1.14, written by Peter Selinger 2001-2017
</metadata>
<g transform="translate(0.000000,256.000000) scale(0.100000,-0.100000)"
fill="#000000" stroke="none">
<path d="M356 2309 c-20 -33 -36 -65 -36 -70 0 -5 -4 -9 -9 -9 -5 0 -11 -8
-14 -17 -4 -10 -17 -36 -30 -58 -14 -22 -48 -80 -77 -130 -29 -49 -60 -103
-70 -120 -116 -197 -115 -195 -115 -275 0 -63 5 -83 27 -120 34 -58 63 -85
118 -108 58 -25 93 -33 105 -24 9 6 167 267 207 343 8 13 45 78 85 144 l71
120 675 0 675 0 -21 36 c-12 19 -65 106 -117 192 l-95 156 -671 1 -672 0 -36
-61z"/>
<path d="M575 1529 c-187 -327 -182 -314 -139 -354 6 -5 55 -62 110 -125 54
-63 103 -120 109 -126 5 -6 35 -39 65 -74 30 -35 61 -69 68 -76 10 -10 84 -13
345 -13 l333 0 129 222 c71 122 130 225 132 229 2 4 -154 7 -346 6 -193 -1
-353 1 -356 4 -8 8 110 184 127 189 7 3 318 4 691 4 l678 -1 17 30 c26 50 23
180 -6 234 -30 57 -86 110 -142 136 -44 21 -57 21 -841 23 l-797 2 -177 -310z"/>
<path d="M1919 1193 c-8 -16 -47 -84 -87 -153 -41 -69 -84 -143 -97 -165 -12
-22 -54 -94 -93 -160 l-70 -120 -573 -5 -572 -5 -14 -40 c-44 -121 13 -264
132 -328 40 -22 46 -22 650 -24 l610 -2 175 301 c96 166 187 322 201 347 14
25 69 120 123 209 53 90 96 166 96 168 0 2 -105 4 -233 4 l-234 0 -14 -27z"/>
</g>
</svg>
